<svg id="svg" version="1.1" xmlns="http://www.w3.org/2000/svg" xmlns:xlink="http://www.w3.org/1999/xlink" width="400" height="400" viewBox="0, 0, 400,400"><g id="svgg"><path id="path0" d="M186.800 65.263 C 183.018 65.895,176.645 67.219,175.600 67.590 C 175.050 67.786,173.250 68.346,171.600 68.836 C 169.950 69.326,168.429 69.878,168.220 70.063 C 168.011 70.249,167.611 70.400,167.332 70.400 C 167.052 70.400,165.867 70.837,164.698 71.372 C 157.951 74.459,155.675 74.262,151.832 70.260 C 150.682 69.063,149.795 68.416,149.698 68.705 C 149.608 68.977,149.271 69.200,148.950 69.200 C 148.629 69.200,147.980 69.560,147.508 70.000 C 147.036 70.440,146.413 70.800,146.125 70.800 C 145.836 70.800,145.600 70.980,145.600 71.200 C 145.600 71.420,145.330 71.600,145.000 71.600 C 144.670 71.600,144.400 71.780,144.400 72.000 C 144.400 72.220,144.207 72.400,143.971 72.400 C 143.736 72.400,143.306 72.625,143.016 72.900 C 141.881 73.977,140.789 74.785,139.719 75.340 C 139.103 75.658,138.051 76.444,137.381 77.086 C 136.710 77.727,135.858 78.369,135.488 78.511 C 134.748 78.795,134.885 79.528,135.993 81.200 C 140.549 88.079,131.871 97.102,125.208 92.414 C 123.969 91.542,122.400 91.025,122.400 91.489 C 122.400 91.678,121.680 92.628,120.800 93.600 C 119.920 94.572,119.200 95.560,119.200 95.796 C 119.200 96.031,118.840 96.483,118.400 96.800 C 117.960 97.117,117.600 97.562,117.600 97.788 C 117.599 98.015,117.154 98.717,116.611 99.349 C 116.067 99.981,115.516 100.836,115.384 101.249 C 115.253 101.662,114.978 102.000,114.773 102.000 C 114.568 102.000,114.400 102.236,114.400 102.525 C 114.400 102.813,114.040 103.436,113.600 103.908 C 113.160 104.380,112.800 105.033,112.800 105.360 C 112.800 105.686,112.620 106.064,112.400 106.200 C 112.180 106.336,112.751 107.022,113.669 107.724 C 117.388 110.567,118.047 114.086,115.846 119.357 C 107.861 138.476,106.115 155.924,110.197 175.800 C 112.100 185.066,117.224 197.799,121.655 204.272 C 122.285 205.192,122.800 206.137,122.800 206.372 C 122.800 206.607,122.968 206.800,123.173 206.800 C 123.378 206.800,123.660 207.159,123.799 207.598 C 123.938 208.036,124.272 208.621,124.539 208.898 C 124.807 209.174,126.627 211.740,128.584 214.600 C 130.541 217.460,132.774 220.700,133.548 221.800 C 134.321 222.900,135.366 224.430,135.871 225.200 C 136.376 225.970,136.967 226.813,137.185 227.073 C 138.040 228.094,150.000 246.647,150.000 246.953 C 150.000 247.044,150.751 248.352,151.668 249.859 C 158.558 261.179,164.924 275.549,167.502 285.600 C 169.366 292.869,169.600 293.938,169.600 295.180 C 169.600 295.822,169.776 296.810,169.990 297.374 L 170.380 298.400 181.190 298.400 L 192.000 298.400 192.000 181.600 L 192.000 64.800 190.500 64.848 C 189.675 64.874,188.010 65.061,186.800 65.263 " stroke="none" fill="#fbc244" fill-rule="evenodd"></path><path id="path1" d="M161.200 325.800 L 161.200 337.200 200.000 337.200 L 238.800 337.200 238.800 325.800 L 238.800 314.400 200.000 314.400 L 161.200 314.400 161.200 325.800 M168.800 365.254 C 168.800 378.666,168.944 379.671,171.173 381.870 C 173.768 384.429,173.288 384.387,199.954 384.394 C 233.528 384.402,231.200 385.806,231.200 365.551 L 231.200 353.200 200.000 353.200 L 168.800 353.200 168.800 365.254 " stroke="none" fill="#88a8bc" fill-rule="evenodd"></path><path id="path2" d="M208.000 109.600 L 208.000 154.400 210.736 154.400 C 217.932 154.400,225.018 150.763,227.612 145.738 C 227.935 145.112,228.289 144.510,228.399 144.400 C 228.510 144.290,228.987 143.480,229.460 142.600 C 231.459 138.881,232.176 137.665,233.823 135.200 C 236.666 130.944,242.640 125.600,244.554 125.600 C 244.884 125.600,245.264 125.420,245.400 125.200 C 246.181 123.937,250.823 125.294,252.967 127.413 C 256.998 131.395,256.222 136.542,251.011 140.392 C 249.132 141.780,246.333 145.224,245.478 147.200 C 245.335 147.530,244.666 148.700,243.991 149.800 C 243.317 150.900,242.662 152.115,242.536 152.500 C 242.410 152.885,242.148 153.200,241.953 153.200 C 241.759 153.200,241.600 153.393,241.600 153.628 C 241.600 157.788,229.647 166.953,221.400 169.117 C 217.285 170.196,216.354 170.358,212.753 170.614 C 210.637 170.764,208.702 171.014,208.452 171.168 C 208.115 171.376,208.024 187.857,208.099 234.824 L 208.200 298.200 219.000 298.200 L 229.800 298.200 230.124 296.200 C 230.846 291.737,231.288 289.666,232.817 283.600 C 233.131 282.351,235.190 276.468,236.360 273.474 C 237.018 271.790,236.903 271.200,235.918 271.200 C 233.111 271.200,225.132 266.006,221.787 262.000 C 214.068 252.757,224.954 242.930,233.769 251.184 C 240.523 257.508,247.622 257.727,253.950 251.808 C 256.900 249.049,258.187 246.107,259.054 240.142 L 259.295 238.483 255.747 238.267 C 247.654 237.775,240.882 235.350,235.738 231.103 C 233.470 229.230,230.400 225.686,230.400 224.941 C 230.400 224.680,230.265 224.407,230.100 224.333 C 229.814 224.206,228.351 221.323,227.496 219.200 C 226.601 216.978,226.279 216.164,225.997 215.400 C 224.944 212.551,223.444 210.288,220.970 207.811 C 216.430 203.268,216.117 199.438,219.970 195.598 C 225.290 190.296,234.832 195.189,239.474 205.600 C 241.248 209.578,241.600 210.439,241.600 210.801 C 241.600 211.026,241.764 211.523,241.965 211.905 C 242.166 212.287,242.790 213.595,243.352 214.812 C 248.596 226.173,273.132 223.646,279.099 211.131 C 281.089 206.957,281.200 206.510,281.194 202.681 C 281.185 197.099,279.070 192.059,274.631 187.041 C 270.989 182.924,272.801 176.863,278.538 173.975 C 287.925 169.251,293.598 157.657,291.443 147.600 C 289.272 137.464,283.365 129.280,275.413 125.389 C 270.161 122.819,268.946 119.847,270.591 113.586 C 272.945 104.621,270.548 97.551,263.600 92.964 C 254.088 86.684,241.849 89.171,237.827 98.200 C 235.267 103.947,233.369 106.400,231.483 106.400 C 231.078 106.400,230.386 106.593,229.945 106.830 C 227.973 107.885,222.862 105.227,221.390 102.380 C 220.049 99.787,220.973 94.865,223.676 90.200 C 223.931 89.760,224.513 88.694,224.970 87.831 C 225.877 86.117,231.533 80.128,233.310 79.000 C 234.503 78.242,234.501 77.876,233.297 75.273 C 230.902 70.096,218.500 64.800,208.771 64.800 C 208.014 64.800,208.000 65.627,208.000 109.600 " stroke="none" fill="#fb5c7c" fill-rule="evenodd"></path><path id="path3" d="M193.981 1.572 C 192.921 2.580,192.201 3.693,191.974 4.672 C 191.516 6.643,191.510 26.132,191.967 28.097 C 192.308 29.564,194.675 32.400,195.560 32.400 C 195.802 32.400,196.000 32.580,196.000 32.800 C 196.000 33.040,197.600 33.200,200.000 33.200 C 202.400 33.200,204.000 33.040,204.000 32.800 C 204.000 32.580,204.198 32.400,204.440 32.400 C 204.993 32.400,207.316 30.091,207.935 28.926 C 208.580 27.714,208.587 5.104,207.943 3.874 C 207.691 3.393,206.784 2.325,205.926 1.500 L 204.366 0.000 200.000 0.000 L 195.634 0.000 193.981 1.572 M122.600 19.600 C 122.464 19.820,122.087 20.000,121.763 20.000 C 120.985 20.000,118.400 22.603,118.400 23.387 C 118.400 23.724,118.220 24.000,118.000 24.000 C 117.761 24.000,117.600 25.533,117.600 27.800 C 117.600 30.067,117.761 31.600,118.000 31.600 C 118.220 31.600,118.400 31.960,118.400 32.400 C 118.400 32.840,118.580 33.200,118.800 33.200 C 119.020 33.200,119.200 33.436,119.200 33.725 C 119.200 34.013,119.560 34.636,120.000 35.108 C 120.440 35.580,120.800 36.244,120.800 36.583 C 120.800 36.922,120.980 37.200,121.200 37.200 C 121.420 37.200,121.600 37.560,121.600 38.000 C 121.600 38.440,121.780 38.800,122.000 38.800 C 122.220 38.800,122.400 39.070,122.400 39.400 C 122.400 39.730,122.580 40.000,122.800 40.000 C 123.020 40.000,123.200 40.270,123.200 40.600 C 123.200 40.930,123.380 41.200,123.600 41.200 C 123.820 41.200,124.000 41.470,124.000 41.800 C 124.000 42.130,124.180 42.400,124.400 42.400 C 124.620 42.400,124.800 42.664,124.800 42.986 C 124.800 43.799,126.076 46.400,126.474 46.400 C 126.653 46.400,126.800 46.652,126.800 46.960 C 126.800 47.897,129.594 50.400,130.640 50.400 C 131.168 50.400,131.600 50.580,131.600 50.800 C 131.600 51.029,132.800 51.200,134.400 51.200 C 136.000 51.200,137.200 51.029,137.200 50.800 C 137.200 50.580,137.565 50.400,138.011 50.400 C 139.060 50.400,141.600 48.090,141.600 47.136 C 141.600 46.731,141.780 46.400,142.000 46.400 C 142.239 46.400,142.400 44.867,142.400 42.600 C 142.400 40.333,142.239 38.800,142.000 38.800 C 141.780 38.800,141.600 38.536,141.600 38.214 C 141.600 37.401,140.324 34.800,139.926 34.800 C 139.747 34.800,139.600 34.455,139.600 34.033 C 139.600 33.612,139.465 33.207,139.300 33.133 C 139.135 33.060,138.567 32.145,138.037 31.100 C 137.508 30.055,136.923 29.200,136.737 29.200 C 136.552 29.200,136.400 28.840,136.400 28.400 C 136.400 27.960,136.220 27.600,136.000 27.600 C 135.780 27.600,135.600 27.330,135.600 27.000 C 135.600 26.670,135.420 26.400,135.200 26.400 C 134.980 26.400,134.800 26.164,134.800 25.875 C 134.800 25.587,134.440 24.964,134.000 24.492 C 133.560 24.020,133.200 23.440,133.200 23.203 C 133.200 22.460,130.464 20.000,129.637 20.000 C 129.203 20.000,128.736 19.820,128.600 19.600 C 128.464 19.380,127.114 19.200,125.600 19.200 C 124.086 19.200,122.736 19.380,122.600 19.600 M271.400 19.600 C 271.264 19.820,270.797 20.000,270.363 20.000 C 269.536 20.000,266.800 22.460,266.800 23.203 C 266.800 23.440,266.440 24.020,266.000 24.492 C 265.560 24.964,265.200 25.587,265.200 25.875 C 265.200 26.164,265.020 26.400,264.800 26.400 C 264.580 26.400,264.400 26.670,264.400 27.000 C 264.400 27.330,264.220 27.600,264.000 27.600 C 263.780 27.600,263.600 27.960,263.600 28.400 C 263.600 28.840,263.455 29.200,263.279 29.200 C 263.102 29.200,262.517 30.097,261.979 31.194 C 261.440 32.290,260.865 33.190,260.700 33.194 C 260.535 33.197,260.400 33.560,260.400 34.000 C 260.400 34.440,260.253 34.800,260.074 34.800 C 259.676 34.800,258.400 37.401,258.400 38.214 C 258.400 38.536,258.220 38.800,258.000 38.800 C 257.761 38.800,257.600 40.333,257.600 42.600 C 257.600 44.867,257.761 46.400,258.000 46.400 C 258.220 46.400,258.400 46.731,258.400 47.136 C 258.400 48.090,260.940 50.400,261.989 50.400 C 262.435 50.400,262.800 50.580,262.800 50.800 C 262.800 51.029,264.000 51.200,265.600 51.200 C 267.200 51.200,268.400 51.029,268.400 50.800 C 268.400 50.580,268.832 50.400,269.360 50.400 C 270.406 50.400,273.200 47.897,273.200 46.960 C 273.200 46.652,273.347 46.400,273.526 46.400 C 273.924 46.400,275.200 43.799,275.200 42.986 C 275.200 42.664,275.380 42.400,275.600 42.400 C 275.820 42.400,276.000 42.130,276.000 41.800 C 276.000 41.470,276.180 41.200,276.400 41.200 C 276.620 41.200,276.800 40.930,276.800 40.600 C 276.800 40.270,276.980 40.000,277.200 40.000 C 277.420 40.000,277.600 39.730,277.600 39.400 C 277.600 39.070,277.780 38.800,278.000 38.800 C 278.220 38.800,278.400 38.440,278.400 38.000 C 278.400 37.560,278.580 37.200,278.800 37.200 C 279.020 37.200,279.200 36.880,279.200 36.488 C 279.200 36.097,279.560 35.517,280.000 35.200 C 280.440 34.883,280.800 34.303,280.800 33.912 C 280.800 33.520,280.980 33.200,281.200 33.200 C 281.420 33.200,281.600 32.840,281.600 32.400 C 281.600 31.960,281.780 31.600,282.000 31.600 C 282.239 31.600,282.400 30.067,282.400 27.800 C 282.400 25.533,282.239 24.000,282.000 24.000 C 281.780 24.000,281.600 23.724,281.600 23.387 C 281.600 22.603,279.015 20.000,278.237 20.000 C 277.913 20.000,277.536 19.820,277.400 19.600 C 277.264 19.380,275.914 19.200,274.400 19.200 C 272.886 19.200,271.536 19.380,271.400 19.600 M186.600 48.400 C 186.464 48.620,185.204 48.800,183.800 48.800 C 182.396 48.800,181.136 48.980,181.000 49.200 C 180.864 49.420,179.964 49.600,179.000 49.600 C 178.036 49.600,177.136 49.780,177.000 50.000 C 176.864 50.220,176.133 50.400,175.376 50.400 C 174.619 50.400,174.000 50.580,174.000 50.800 C 174.000 51.020,173.280 51.200,172.400 51.200 C 171.520 51.200,170.800 51.380,170.800 51.600 C 170.800 51.820,170.170 52.000,169.400 52.000 C 168.630 52.000,168.000 52.180,168.000 52.400 C 168.000 52.620,167.370 52.800,166.600 52.800 C 165.830 52.800,165.200 52.980,165.200 53.200 C 165.200 53.420,164.750 53.600,164.200 53.600 C 163.650 53.600,163.200 53.780,163.200 54.000 C 163.200 54.220,162.750 54.400,162.200 54.400 C 161.650 54.400,161.200 54.580,161.200 54.800 C 161.200 55.020,160.750 55.200,160.200 55.200 C 159.650 55.200,159.200 55.380,159.200 55.600 C 159.200 55.820,158.840 56.000,158.400 56.000 C 157.960 56.000,157.600 56.180,157.600 56.400 C 157.600 56.620,157.060 56.800,156.400 56.800 C 155.740 56.800,155.200 56.980,155.200 57.200 C 155.200 57.420,154.922 57.600,154.583 57.600 C 154.244 57.600,153.700 57.825,153.375 58.100 C 151.155 59.976,150.400 60.798,150.400 61.337 C 150.400 61.676,150.220 62.064,150.000 62.200 C 149.015 62.809,149.534 68.368,150.600 68.636 C 151.150 68.774,151.600 69.023,151.600 69.189 C 151.600 69.787,153.828 71.724,155.167 72.289 C 157.501 73.275,159.543 73.001,164.235 71.072 C 168.723 69.227,176.262 66.813,179.800 66.087 C 186.652 64.682,191.672 63.981,192.101 64.369 C 192.266 64.519,192.356 117.282,192.301 181.621 L 192.200 298.600 181.800 298.712 C 168.792 298.853,169.784 299.106,169.215 295.502 C 168.159 288.808,165.373 278.946,163.171 274.104 C 162.747 273.172,162.400 272.244,162.400 272.042 C 162.400 271.841,162.054 270.984,161.630 270.138 C 161.207 269.292,159.606 265.990,158.074 262.800 C 156.542 259.610,154.611 255.830,153.784 254.400 C 152.956 252.970,151.550 250.540,150.659 249.000 C 149.768 247.460,148.355 245.175,147.519 243.922 C 146.684 242.669,146.000 241.527,146.000 241.385 C 146.000 241.138,131.946 220.185,129.242 216.400 C 125.402 211.025,119.476 201.793,118.073 199.000 C 115.907 194.688,114.000 190.468,114.000 189.985 C 114.000 189.767,113.841 189.277,113.647 188.895 C 112.398 186.440,110.771 180.977,109.627 175.400 C 109.356 174.080,108.982 172.280,108.795 171.400 C 106.869 162.328,107.401 146.175,109.981 135.400 C 110.192 134.520,110.476 133.260,110.612 132.600 C 110.749 131.940,111.003 131.040,111.178 130.600 C 111.352 130.160,111.888 128.540,112.368 127.000 C 112.848 125.460,113.393 123.840,113.580 123.400 C 114.160 122.029,115.175 119.657,115.762 118.300 C 117.464 114.368,117.026 111.819,114.145 108.891 C 112.965 107.693,112.000 106.552,112.000 106.356 C 112.000 106.160,110.650 106.000,109.000 106.000 C 107.267 106.000,106.000 106.169,106.000 106.400 C 106.000 106.620,105.721 106.800,105.381 106.800 C 104.571 106.800,101.200 110.131,101.200 110.932 C 101.200 111.274,101.020 111.664,100.800 111.800 C 100.580 111.936,100.400 112.397,100.400 112.824 C 100.400 113.251,100.220 113.600,100.000 113.600 C 99.780 113.600,99.600 113.960,99.600 114.400 C 99.600 114.840,99.420 115.200,99.200 115.200 C 98.980 115.200,98.800 115.740,98.800 116.400 C 98.800 117.060,98.620 117.600,98.400 117.600 C 98.180 117.600,98.000 117.949,98.000 118.376 C 98.000 118.803,97.820 119.264,97.600 119.400 C 97.380 119.536,97.200 120.087,97.200 120.624 C 97.200 121.161,97.020 121.600,96.800 121.600 C 96.580 121.600,96.400 121.992,96.400 122.472 C 96.400 123.392,95.740 125.728,95.151 126.895 C 94.958 127.277,94.800 128.121,94.800 128.771 C 94.800 129.421,94.620 130.064,94.400 130.200 C 94.180 130.336,94.000 131.031,94.000 131.744 C 94.000 132.457,93.837 133.211,93.639 133.420 C 93.440 133.629,93.178 134.610,93.055 135.600 C 91.147 151.066,91.147 161.334,93.055 176.800 C 93.178 177.790,93.440 178.771,93.639 178.980 C 93.837 179.189,94.000 180.044,94.000 180.880 C 94.000 181.716,94.180 182.400,94.400 182.400 C 94.620 182.400,94.800 183.120,94.800 184.000 C 94.800 184.880,94.980 185.600,95.200 185.600 C 95.420 185.600,95.600 186.129,95.600 186.776 C 95.600 187.423,95.780 188.064,96.000 188.200 C 96.220 188.336,96.400 188.977,96.400 189.624 C 96.400 190.271,96.580 190.800,96.800 190.800 C 97.020 190.800,97.200 191.340,97.200 192.000 C 97.200 192.660,97.380 193.200,97.600 193.200 C 97.820 193.200,98.000 193.560,98.000 194.000 C 98.000 194.440,98.180 194.800,98.400 194.800 C 98.620 194.800,98.800 195.340,98.800 196.000 C 98.800 196.660,98.980 197.200,99.200 197.200 C 99.420 197.200,99.600 197.560,99.600 198.000 C 99.600 198.440,99.780 198.800,100.000 198.800 C 100.220 198.800,100.400 199.239,100.400 199.776 C 100.400 200.313,100.580 200.864,100.800 201.000 C 101.020 201.136,101.200 201.597,101.200 202.024 C 101.200 202.451,101.380 202.800,101.600 202.800 C 101.820 202.800,102.000 203.160,102.000 203.600 C 102.000 204.040,102.180 204.400,102.400 204.400 C 102.620 204.400,102.800 204.760,102.800 205.200 C 102.800 205.640,102.946 206.000,103.125 206.000 C 103.304 206.000,103.698 206.630,104.000 207.400 C 104.302 208.170,104.696 208.800,104.875 208.800 C 105.054 208.800,105.200 209.036,105.200 209.325 C 105.200 209.613,105.560 210.236,106.000 210.708 C 106.440 211.180,106.800 211.844,106.800 212.183 C 106.800 212.522,106.936 212.800,107.102 212.800 C 107.269 212.800,107.624 213.295,107.893 213.900 C 108.541 215.362,110.964 219.197,111.874 220.202 C 112.273 220.642,112.855 221.497,113.168 222.102 C 113.480 222.706,113.885 223.200,114.068 223.200 C 114.250 223.200,114.400 223.430,114.400 223.712 C 114.400 223.993,114.760 224.483,115.200 224.800 C 115.640 225.117,116.000 225.631,116.000 225.941 C 116.000 226.252,116.316 226.797,116.703 227.153 C 117.089 227.509,117.660 228.295,117.970 228.900 C 118.281 229.505,118.685 230.000,118.868 230.000 C 119.050 230.000,119.200 230.243,119.200 230.541 C 119.200 230.838,119.740 231.646,120.400 232.337 C 121.060 233.028,121.600 233.825,121.600 234.108 C 121.600 234.391,121.960 234.883,122.400 235.200 C 122.840 235.517,123.200 236.031,123.200 236.341 C 123.200 236.652,123.517 237.197,123.906 237.553 C 124.294 237.909,124.969 238.887,125.406 239.727 C 125.842 240.567,126.470 241.557,126.800 241.927 C 127.130 242.297,127.655 243.095,127.968 243.700 C 128.280 244.305,128.685 244.800,128.868 244.800 C 129.050 244.800,129.200 245.120,129.200 245.512 C 129.200 245.903,129.560 246.483,130.000 246.800 C 130.440 247.117,130.800 247.697,130.800 248.088 C 130.800 248.480,130.980 248.800,131.200 248.800 C 131.420 248.800,131.600 249.036,131.600 249.325 C 131.600 249.613,131.915 250.198,132.300 250.625 C 132.685 251.051,133.255 251.895,133.568 252.500 C 133.880 253.105,134.285 253.600,134.468 253.600 C 134.650 253.600,134.800 253.960,134.800 254.400 C 134.800 254.840,134.980 255.200,135.200 255.200 C 135.420 255.200,135.600 255.470,135.600 255.800 C 135.600 256.130,135.780 256.400,136.000 256.400 C 136.220 256.400,136.400 256.670,136.400 257.000 C 136.400 257.330,136.580 257.600,136.800 257.600 C 137.020 257.600,137.200 257.870,137.200 258.200 C 137.200 258.530,137.380 258.800,137.600 258.800 C 137.820 258.800,138.000 259.160,138.000 259.600 C 138.000 260.040,138.180 260.400,138.400 260.400 C 138.620 260.400,138.800 260.636,138.800 260.925 C 138.800 261.213,139.160 261.836,139.600 262.308 C 140.040 262.780,140.400 263.444,140.400 263.783 C 140.400 264.122,140.580 264.400,140.800 264.400 C 141.020 264.400,141.200 264.760,141.200 265.200 C 141.200 265.640,141.380 266.000,141.600 266.000 C 141.820 266.000,142.000 266.278,142.000 266.618 C 142.000 267.254,145.546 274.841,146.010 275.200 C 146.153 275.310,146.518 276.255,146.822 277.300 C 147.126 278.345,147.515 279.200,147.687 279.200 C 147.859 279.200,148.000 279.549,148.000 279.976 C 148.000 280.403,148.180 280.864,148.400 281.000 C 148.620 281.136,148.800 281.687,148.800 282.224 C 148.800 282.761,148.980 283.200,149.200 283.200 C 149.420 283.200,149.600 283.740,149.600 284.400 C 149.600 285.060,149.780 285.600,150.000 285.600 C 150.220 285.600,150.400 286.140,150.400 286.800 C 150.400 287.460,150.580 288.000,150.800 288.000 C 151.020 288.000,151.200 288.529,151.200 289.176 C 151.200 289.823,151.380 290.464,151.600 290.600 C 151.820 290.736,152.000 291.557,152.000 292.424 C 152.000 293.291,152.180 294.000,152.400 294.000 C 152.620 294.000,152.800 294.900,152.800 296.000 C 152.800 297.100,152.980 298.000,153.200 298.000 C 153.420 298.000,153.600 298.360,153.600 298.800 C 153.600 299.300,153.333 299.600,152.888 299.600 C 152.497 299.600,151.917 299.960,151.600 300.400 C 151.283 300.840,150.827 301.200,150.587 301.200 C 150.054 301.200,148.000 303.291,148.000 303.834 C 148.000 304.048,147.640 304.483,147.200 304.800 C 146.760 305.117,146.400 305.697,146.400 306.088 C 146.400 306.480,146.220 306.800,146.000 306.800 C 145.780 306.800,145.600 307.239,145.600 307.776 C 145.600 308.313,145.420 308.864,145.200 309.000 C 144.944 309.158,144.800 315.204,144.800 325.824 C 144.800 336.608,144.940 342.400,145.200 342.400 C 145.420 342.400,145.600 342.940,145.600 343.600 C 145.600 344.260,145.780 344.800,146.000 344.800 C 146.220 344.800,146.400 345.067,146.400 345.393 C 146.400 346.209,148.677 348.795,151.336 351.000 L 152.783 352.200 152.791 367.700 C 152.797 377.761,152.940 383.200,153.200 383.200 C 153.420 383.200,153.600 383.740,153.600 384.400 C 153.600 385.060,153.780 385.600,154.000 385.600 C 154.220 385.600,154.400 385.960,154.400 386.400 C 154.400 386.840,154.580 387.200,154.800 387.200 C 155.020 387.200,155.200 387.560,155.200 388.000 C 155.200 388.440,155.380 388.800,155.600 388.800 C 155.820 388.800,156.000 389.036,156.000 389.325 C 156.000 389.613,156.360 390.236,156.800 390.708 C 157.240 391.180,157.600 391.669,157.600 391.794 C 157.600 392.147,161.139 395.600,161.501 395.600 C 161.678 395.600,162.083 395.960,162.400 396.400 C 162.717 396.840,163.297 397.200,163.688 397.200 C 164.080 397.200,164.400 397.380,164.400 397.600 C 164.400 397.820,164.760 398.000,165.200 398.000 C 165.640 398.000,166.000 398.180,166.000 398.400 C 166.000 398.620,166.345 398.800,166.767 398.800 C 167.188 398.800,167.608 399.025,167.700 399.300 C 167.944 400.033,232.056 400.033,232.300 399.300 C 232.392 399.025,232.812 398.800,233.233 398.800 C 233.655 398.800,234.000 398.620,234.000 398.400 C 234.000 398.180,234.360 398.000,234.800 398.000 C 235.240 398.000,235.600 397.820,235.600 397.600 C 235.600 397.380,235.920 397.200,236.312 397.200 C 236.703 397.200,237.283 396.840,237.600 396.400 C 237.917 395.960,238.341 395.600,238.541 395.600 C 238.959 395.600,242.400 392.243,242.400 391.836 C 242.400 391.688,242.760 391.180,243.200 390.708 C 243.640 390.236,244.000 389.613,244.000 389.325 C 244.000 389.036,244.180 388.800,244.400 388.800 C 244.620 388.800,244.800 388.440,244.800 388.000 C 244.800 387.560,244.980 387.200,245.200 387.200 C 245.420 387.200,245.600 386.840,245.600 386.400 C 245.600 385.960,245.780 385.600,246.000 385.600 C 246.220 385.600,246.400 385.060,246.400 384.400 C 246.400 383.740,246.580 383.200,246.800 383.200 C 247.060 383.200,247.203 377.761,247.209 367.700 L 247.217 352.200 248.664 351.000 C 251.323 348.795,253.600 346.209,253.600 345.393 C 253.600 345.067,253.780 344.800,254.000 344.800 C 254.220 344.800,254.400 344.361,254.400 343.824 C 254.400 343.287,254.580 342.736,254.800 342.600 C 255.348 342.261,255.348 309.339,254.800 309.000 C 254.580 308.864,254.400 308.313,254.400 307.776 C 254.400 307.239,254.220 306.800,254.000 306.800 C 253.780 306.800,253.600 306.480,253.600 306.088 C 253.600 305.697,253.240 305.117,252.800 304.800 C 252.360 304.483,252.000 304.048,252.000 303.834 C 252.000 303.291,249.946 301.200,249.413 301.200 C 249.173 301.200,248.717 300.840,248.400 300.400 C 248.083 299.960,247.503 299.600,247.112 299.600 C 246.588 299.600,246.400 299.284,246.400 298.400 C 246.400 297.740,246.580 297.200,246.800 297.200 C 247.020 297.200,247.200 296.300,247.200 295.200 C 247.200 294.100,247.380 293.200,247.600 293.200 C 247.820 293.200,248.000 292.581,248.000 291.824 C 248.000 291.067,248.180 290.336,248.400 290.200 C 248.620 290.064,248.800 289.423,248.800 288.776 C 248.800 288.129,248.980 287.600,249.200 287.600 C 249.420 287.600,249.600 287.060,249.600 286.400 C 249.600 285.740,249.780 285.200,250.000 285.200 C 250.220 285.200,250.400 284.761,250.400 284.224 C 250.400 283.687,250.580 283.136,250.800 283.000 C 251.020 282.864,251.200 282.313,251.200 281.776 C 251.200 281.239,251.347 280.800,251.528 280.800 C 251.708 280.800,252.100 279.900,252.400 278.800 C 252.700 277.700,253.092 276.800,253.272 276.800 C 253.453 276.800,253.600 276.440,253.600 276.000 C 253.600 275.560,253.780 275.200,254.000 275.200 C 254.220 275.200,254.400 274.840,254.400 274.400 C 254.400 273.960,254.580 273.600,254.800 273.600 C 255.020 273.600,255.200 273.345,255.200 273.032 C 255.200 272.005,256.586 270.005,257.300 270.003 C 257.685 270.001,258.000 269.820,258.000 269.600 C 258.000 269.380,258.320 269.200,258.712 269.200 C 259.103 269.200,259.683 268.840,260.000 268.400 C 260.317 267.960,260.804 267.600,261.082 267.600 C 261.950 267.600,270.000 259.822,270.000 258.983 C 270.000 258.852,270.515 257.992,271.143 257.072 C 271.772 256.152,272.529 254.680,272.825 253.800 C 273.121 252.920,273.507 252.029,273.682 251.820 C 273.857 251.611,274.000 251.062,274.000 250.600 C 274.000 250.138,274.211 249.549,274.468 249.292 C 274.770 248.990,275.002 246.515,275.123 242.316 C 275.324 235.342,275.483 234.841,277.500 234.813 C 277.995 234.806,278.400 234.620,278.400 234.400 C 278.400 234.180,278.720 234.000,279.112 234.000 C 279.503 234.000,280.083 233.640,280.400 233.200 C 280.717 232.760,281.297 232.400,281.688 232.400 C 282.080 232.400,282.400 232.250,282.400 232.068 C 282.400 231.885,282.895 231.480,283.500 231.168 C 284.929 230.430,291.600 223.660,291.600 222.947 C 291.600 222.646,291.780 222.400,292.000 222.400 C 292.220 222.400,292.400 222.130,292.400 221.800 C 292.400 221.470,292.580 221.200,292.800 221.200 C 293.020 221.200,293.200 220.930,293.200 220.600 C 293.200 220.270,293.380 220.000,293.600 220.000 C 293.820 220.000,294.000 219.640,294.000 219.200 C 294.000 218.760,294.180 218.400,294.400 218.400 C 294.620 218.400,294.800 218.040,294.800 217.600 C 294.800 217.160,294.980 216.800,295.200 216.800 C 295.420 216.800,295.600 216.260,295.600 215.600 C 295.600 214.940,295.780 214.400,296.000 214.400 C 296.220 214.400,296.400 213.860,296.400 213.200 C 296.400 212.540,296.580 212.000,296.800 212.000 C 297.020 212.000,297.200 211.100,297.200 210.000 C 297.200 208.900,297.380 208.000,297.600 208.000 C 297.847 208.000,298.000 205.933,298.000 202.600 C 298.000 199.267,297.847 197.200,297.600 197.200 C 297.380 197.200,297.200 196.300,297.200 195.200 C 297.200 194.100,297.020 193.200,296.800 193.200 C 296.580 193.200,296.400 192.570,296.400 191.800 C 296.400 191.030,296.220 190.400,296.000 190.400 C 295.780 190.400,295.600 190.040,295.600 189.600 C 295.600 189.160,295.420 188.800,295.200 188.800 C 294.980 188.800,294.800 188.260,294.800 187.600 C 294.800 186.940,294.620 186.400,294.400 186.400 C 294.180 186.400,294.000 186.055,294.000 185.633 C 294.000 185.212,293.775 184.790,293.500 184.695 C 293.006 184.526,294.194 183.293,296.801 181.270 C 297.460 180.758,298.000 180.159,298.000 179.938 C 298.000 179.718,298.720 178.846,299.600 178.000 C 300.480 177.154,301.200 176.245,301.200 175.978 C 301.200 175.712,301.529 175.203,301.930 174.847 C 302.332 174.491,302.916 173.615,303.228 172.900 C 303.540 172.185,303.931 171.600,304.098 171.600 C 304.264 171.600,304.400 171.240,304.400 170.800 C 304.400 170.360,304.580 170.000,304.800 170.000 C 305.020 170.000,305.200 169.640,305.200 169.200 C 305.200 168.760,305.380 168.400,305.600 168.400 C 305.820 168.400,306.000 167.961,306.000 167.424 C 306.000 166.887,306.180 166.336,306.400 166.200 C 306.620 166.064,306.800 165.434,306.800 164.800 C 306.800 164.166,306.980 163.536,307.200 163.400 C 307.420 163.264,307.600 162.569,307.600 161.856 C 307.600 161.143,307.788 160.372,308.017 160.143 C 308.872 159.288,308.075 141.141,307.158 140.574 C 306.961 140.452,306.800 139.823,306.800 139.176 C 306.800 138.529,306.620 138.000,306.400 138.000 C 306.180 138.000,306.000 137.460,306.000 136.800 C 306.000 136.140,305.820 135.600,305.600 135.600 C 305.380 135.600,305.200 135.319,305.200 134.975 C 305.200 134.213,302.767 129.053,302.320 128.867 C 302.144 128.793,302.000 128.478,302.000 128.167 C 302.000 127.855,301.820 127.600,301.600 127.600 C 301.380 127.600,301.200 127.358,301.200 127.062 C 301.200 126.766,300.840 126.198,300.400 125.800 C 299.960 125.402,299.600 124.922,299.600 124.734 C 299.600 124.546,299.060 123.828,298.400 123.137 C 297.740 122.446,297.200 121.719,297.200 121.521 C 297.200 120.893,291.202 115.206,289.056 113.800 C 288.061 113.148,288.059 113.137,288.044 106.478 C 288.034 102.247,287.877 99.759,287.614 99.671 C 287.386 99.595,287.200 99.006,287.200 98.361 C 287.200 97.717,287.020 96.832,286.800 96.395 C 286.580 95.958,286.220 95.242,286.000 94.805 C 285.780 94.368,285.600 93.738,285.600 93.405 C 285.600 93.072,285.420 92.800,285.200 92.800 C 284.980 92.800,284.800 92.440,284.800 92.000 C 284.800 91.560,284.620 91.200,284.400 91.200 C 284.180 91.200,284.000 90.880,284.000 90.488 C 284.000 90.097,283.640 89.517,283.200 89.200 C 282.760 88.883,282.400 88.386,282.400 88.096 C 282.400 85.410,269.090 75.489,264.690 74.896 C 263.860 74.784,263.084 74.536,262.967 74.346 C 262.849 74.156,262.043 74.000,261.176 74.000 C 260.309 74.000,259.600 73.820,259.600 73.600 C 259.600 73.357,257.800 73.200,255.000 73.200 C 250.667 73.200,250.400 73.154,250.400 72.400 C 250.400 71.960,250.220 71.600,250.000 71.600 C 249.780 71.600,249.600 71.060,249.600 70.400 C 249.600 69.740,249.420 69.200,249.200 69.200 C 248.980 69.200,248.800 68.840,248.800 68.400 C 248.800 67.960,248.620 67.600,248.400 67.600 C 248.180 67.600,248.000 67.280,248.000 66.888 C 248.000 66.497,247.640 65.917,247.200 65.600 C 246.760 65.283,246.400 64.787,246.400 64.498 C 246.400 64.210,245.815 63.373,245.100 62.640 C 244.385 61.906,243.519 60.967,243.177 60.553 C 242.215 59.391,239.049 56.803,238.588 56.801 C 238.362 56.801,237.917 56.440,237.600 56.000 C 237.283 55.560,236.703 55.200,236.312 55.200 C 235.920 55.200,235.600 55.020,235.600 54.800 C 235.600 54.580,235.240 54.400,234.800 54.400 C 234.360 54.400,234.000 54.220,234.000 54.000 C 234.000 53.780,233.640 53.600,233.200 53.600 C 232.760 53.600,232.400 53.420,232.400 53.200 C 232.400 52.980,232.051 52.800,231.624 52.800 C 231.197 52.800,230.736 52.620,230.600 52.400 C 230.464 52.180,229.913 52.000,229.376 52.000 C 228.839 52.000,228.400 51.820,228.400 51.600 C 228.400 51.380,227.860 51.200,227.200 51.200 C 226.540 51.200,226.000 51.020,226.000 50.800 C 226.000 50.580,225.280 50.400,224.400 50.400 C 223.520 50.400,222.800 50.220,222.800 50.000 C 222.800 49.780,221.990 49.600,221.000 49.600 C 220.010 49.600,219.200 49.420,219.200 49.200 C 219.200 48.975,218.075 48.800,216.624 48.800 C 215.207 48.800,213.936 48.620,213.800 48.400 C 213.643 48.146,208.670 48.000,200.200 48.000 C 191.730 48.000,186.757 48.146,186.600 48.400 M212.217 64.610 C 223.783 65.755,233.531 71.264,234.581 77.248 C 234.806 78.528,234.681 78.711,232.228 80.688 C 228.002 84.095,224.233 89.275,222.398 94.200 C 222.234 94.640,221.897 95.503,221.650 96.119 C 219.921 100.418,223.030 105.608,227.719 106.251 C 231.351 106.749,234.490 104.728,236.036 100.899 C 240.387 90.114,249.217 86.276,260.000 90.483 C 269.321 94.119,274.201 104.094,271.211 113.400 C 270.221 116.480,270.232 119.393,271.241 121.187 C 272.211 122.913,272.907 123.468,276.394 125.301 C 278.842 126.587,282.194 129.062,283.409 130.480 C 287.946 135.774,290.173 140.080,291.974 147.046 C 294.345 156.212,288.834 168.751,280.337 173.523 C 279.552 173.964,278.480 174.567,277.955 174.862 C 272.923 177.696,271.880 183.560,275.691 187.600 C 286.717 199.290,281.990 217.362,266.882 221.276 C 259.123 223.287,255.436 223.240,249.458 221.056 C 246.166 219.853,242.000 215.441,242.000 213.158 C 242.000 212.956,241.622 211.938,241.160 210.896 C 240.698 209.853,240.182 208.640,240.013 208.200 C 235.685 196.938,226.341 190.750,220.811 195.483 C 216.684 199.016,216.998 203.350,221.709 207.862 C 224.170 210.219,225.683 212.690,227.184 216.800 C 227.465 217.570,228.033 218.963,228.447 219.896 C 228.861 220.828,229.200 221.674,229.200 221.774 C 229.200 221.875,229.821 223.002,230.579 224.279 C 235.067 231.832,243.704 236.679,254.400 237.648 C 259.736 238.132,259.600 238.071,259.600 239.968 C 259.600 246.701,254.684 253.698,248.411 255.894 C 246.784 256.464,240.723 256.570,239.695 256.047 C 239.313 255.852,238.462 255.447,237.805 255.147 C 237.148 254.846,235.528 253.552,234.205 252.270 C 228.563 246.805,222.752 247.230,220.219 253.293 C 217.875 258.902,226.987 268.968,235.932 270.651 C 237.598 270.964,237.867 271.630,237.035 273.383 C 234.908 277.866,231.940 288.175,230.994 294.371 C 230.265 299.144,231.218 298.811,218.600 298.697 L 207.800 298.600 207.800 234.600 L 207.800 170.600 209.400 170.493 C 225.476 169.419,235.397 163.874,241.952 152.298 C 242.418 151.474,243.160 150.170,243.600 149.400 C 244.040 148.630,244.782 147.326,245.248 146.502 C 247.028 143.359,248.514 141.541,250.521 140.050 C 260.102 132.936,251.849 120.854,241.995 127.568 C 237.460 130.658,235.018 133.695,230.387 142.000 C 225.183 151.334,221.661 153.833,212.255 154.863 C 210.306 155.077,208.461 155.155,208.155 155.038 C 207.550 154.806,207.285 64.848,207.888 64.245 C 208.046 64.087,208.549 64.051,209.005 64.165 C 209.460 64.280,210.906 64.480,212.217 64.610 M67.600 74.400 C 67.600 74.620,67.312 74.800,66.960 74.800 C 66.142 74.800,63.600 77.324,63.600 78.136 C 63.600 78.475,63.420 78.864,63.200 79.000 C 62.980 79.136,62.800 80.497,62.800 82.024 C 62.800 83.608,62.972 84.800,63.200 84.800 C 63.420 84.800,63.600 85.232,63.600 85.760 C 63.600 86.806,66.103 89.600,67.040 89.600 C 67.348 89.600,67.600 89.747,67.600 89.926 C 67.600 90.324,70.201 91.600,71.014 91.600 C 71.336 91.600,71.600 91.780,71.600 92.000 C 71.600 92.220,71.920 92.400,72.312 92.400 C 72.703 92.400,73.283 92.760,73.600 93.200 C 73.917 93.640,74.497 94.000,74.888 94.000 C 75.280 94.000,75.600 94.180,75.600 94.400 C 75.600 94.620,75.870 94.800,76.200 94.800 C 76.530 94.800,76.800 94.959,76.800 95.153 C 76.800 95.348,77.115 95.607,77.500 95.729 C 78.436 96.025,80.566 97.324,80.733 97.700 C 80.807 97.865,81.212 98.000,81.633 98.000 C 82.055 98.000,82.400 98.180,82.400 98.400 C 82.400 98.993,89.426 98.906,90.480 98.300 C 92.222 97.298,94.000 95.234,94.000 94.213 C 94.000 93.656,94.180 93.200,94.400 93.200 C 94.626 93.200,94.800 92.067,94.800 90.600 C 94.800 89.133,94.626 88.000,94.400 88.000 C 94.180 88.000,94.000 87.585,94.000 87.078 C 94.000 86.141,91.633 83.200,90.879 83.200 C 90.652 83.200,90.407 83.065,90.333 82.900 C 90.166 82.524,88.036 81.225,87.100 80.929 C 86.715 80.807,86.400 80.548,86.400 80.353 C 86.400 80.159,86.040 80.000,85.600 80.000 C 85.160 80.000,84.800 79.842,84.800 79.649 C 84.800 79.455,84.260 79.073,83.600 78.800 C 82.940 78.527,82.400 78.145,82.400 77.951 C 82.400 77.758,82.040 77.600,81.600 77.600 C 81.160 77.600,80.800 77.420,80.800 77.200 C 80.800 76.980,80.440 76.800,80.000 76.800 C 79.560 76.800,79.200 76.653,79.200 76.474 C 79.200 76.076,76.599 74.800,75.786 74.800 C 75.464 74.800,75.200 74.620,75.200 74.400 C 75.200 74.161,73.667 74.000,71.400 74.000 C 69.133 74.000,67.600 74.161,67.600 74.400 M324.800 74.400 C 324.800 74.620,324.536 74.800,324.214 74.800 C 323.401 74.800,320.800 76.076,320.800 76.474 C 320.800 76.653,320.440 76.800,320.000 76.800 C 319.560 76.800,319.197 76.935,319.194 77.100 C 319.190 77.265,318.290 77.840,317.194 78.379 C 316.097 78.917,315.200 79.502,315.200 79.679 C 315.200 79.855,314.840 80.000,314.400 80.000 C 313.960 80.000,313.600 80.159,313.600 80.353 C 313.600 80.548,313.285 80.807,312.900 80.929 C 311.964 81.225,309.834 82.524,309.667 82.900 C 309.593 83.065,309.348 83.200,309.121 83.200 C 308.367 83.200,306.000 86.141,306.000 87.078 C 306.000 87.585,305.820 88.000,305.600 88.000 C 305.375 88.000,305.200 89.125,305.200 90.576 C 305.200 91.993,305.380 93.264,305.600 93.400 C 305.820 93.536,306.000 94.003,306.000 94.437 C 306.000 95.254,308.456 98.000,309.187 98.000 C 309.414 98.000,309.600 98.180,309.600 98.400 C 309.600 98.640,311.200 98.800,313.600 98.800 C 316.000 98.800,317.600 98.640,317.600 98.400 C 317.600 98.180,317.960 98.000,318.400 98.000 C 318.840 98.000,319.200 97.841,319.200 97.647 C 319.200 97.452,319.515 97.193,319.900 97.071 C 320.587 96.854,322.806 95.595,323.200 95.199 C 323.310 95.089,323.940 94.730,324.600 94.402 C 325.260 94.074,326.091 93.489,326.447 93.103 C 326.803 92.716,327.388 92.400,327.747 92.400 C 328.106 92.400,328.400 92.220,328.400 92.000 C 328.400 91.780,328.664 91.600,328.986 91.600 C 329.799 91.600,332.400 90.324,332.400 89.926 C 332.400 89.747,332.625 89.600,332.900 89.600 C 333.563 89.599,335.600 87.829,335.600 87.253 C 335.600 87.004,335.780 86.800,336.000 86.800 C 336.220 86.800,336.400 86.350,336.400 85.800 C 336.400 85.250,336.580 84.800,336.800 84.800 C 337.028 84.800,337.200 83.608,337.200 82.024 C 337.200 80.497,337.020 79.136,336.800 79.000 C 336.580 78.864,336.400 78.475,336.400 78.136 C 336.400 77.324,333.858 74.800,333.040 74.800 C 332.688 74.800,332.400 74.620,332.400 74.400 C 332.400 74.161,330.867 74.000,328.600 74.000 C 326.333 74.000,324.800 74.161,324.800 74.400 M126.600 77.200 C 126.464 77.420,126.070 77.600,125.724 77.600 C 124.893 77.600,121.600 80.912,121.600 81.747 C 121.600 82.106,121.420 82.400,121.200 82.400 C 120.969 82.400,120.800 83.659,120.800 85.376 C 120.800 87.013,120.980 88.464,121.200 88.600 C 121.420 88.736,121.600 89.119,121.600 89.452 C 121.600 90.278,122.586 91.200,123.471 91.201 C 123.872 91.202,124.805 91.572,125.544 92.023 C 131.934 95.918,139.364 88.541,135.800 81.838 C 135.250 80.804,134.800 79.684,134.800 79.350 C 134.800 77.551,127.557 75.652,126.600 77.200 M45.909 149.700 C 44.918 150.635,43.903 151.793,43.654 152.274 C 42.686 154.137,43.307 161.200,44.437 161.200 C 44.607 161.200,44.860 161.560,45.000 162.000 C 45.140 162.440,45.429 162.800,45.644 162.800 C 45.858 162.800,46.420 163.160,46.892 163.600 C 47.862 164.504,72.800 164.889,72.800 164.000 C 72.800 163.780,72.978 163.600,73.195 163.600 C 73.757 163.600,75.200 162.304,75.200 161.799 C 75.200 161.567,75.560 161.117,76.000 160.800 C 76.709 160.289,76.800 159.765,76.800 156.200 C 76.800 152.635,76.709 152.111,76.000 151.600 C 75.560 151.283,75.200 150.833,75.200 150.601 C 75.200 150.096,73.757 148.800,73.195 148.800 C 72.978 148.800,72.800 148.620,72.800 148.400 C 72.800 148.142,68.352 148.000,60.256 148.000 L 47.711 148.000 45.909 149.700 M327.200 148.400 C 327.200 148.620,327.022 148.800,326.805 148.800 C 326.243 148.800,324.800 150.096,324.800 150.601 C 324.800 150.833,324.440 151.283,324.000 151.600 C 323.291 152.111,323.200 152.635,323.200 156.200 C 323.200 159.765,323.291 160.289,324.000 160.800 C 324.440 161.117,324.800 161.567,324.800 161.799 C 324.800 162.304,326.243 163.600,326.805 163.600 C 327.022 163.600,327.200 163.780,327.200 164.000 C 327.200 164.258,331.648 164.400,339.744 164.400 L 352.289 164.400 354.091 162.700 C 356.525 160.403,356.800 159.745,356.800 156.200 C 356.800 152.655,356.525 151.997,354.091 149.700 L 352.289 148.000 339.744 148.000 C 331.648 148.000,327.200 148.142,327.200 148.400 M82.400 214.000 C 82.400 214.220,82.040 214.400,81.600 214.400 C 81.160 214.400,80.800 214.580,80.800 214.800 C 80.800 215.020,80.564 215.200,80.275 215.200 C 79.987 215.200,79.364 215.560,78.892 216.000 C 78.420 216.440,77.756 216.800,77.417 216.800 C 77.078 216.800,76.800 216.980,76.800 217.200 C 76.800 217.420,76.530 217.600,76.200 217.600 C 75.870 217.600,75.600 217.780,75.600 218.000 C 75.600 218.220,75.280 218.400,74.888 218.400 C 74.497 218.400,73.917 218.760,73.600 219.200 C 73.283 219.640,72.703 220.000,72.312 220.000 C 71.920 220.000,71.600 220.180,71.600 220.400 C 71.600 220.620,71.240 220.800,70.800 220.800 C 70.360 220.800,70.000 220.980,70.000 221.200 C 70.000 221.420,69.764 221.600,69.475 221.600 C 69.187 221.600,68.564 221.960,68.092 222.400 C 67.620 222.840,67.040 223.200,66.803 223.200 C 66.049 223.200,63.600 225.942,63.600 226.787 C 63.600 227.234,63.420 227.600,63.200 227.600 C 62.972 227.600,62.800 228.792,62.800 230.376 C 62.800 231.903,62.980 233.264,63.200 233.400 C 63.420 233.536,63.600 233.961,63.600 234.345 C 63.600 235.255,66.119 238.000,66.954 238.000 C 67.309 238.000,67.600 238.180,67.600 238.400 C 67.600 238.639,69.133 238.800,71.400 238.800 C 73.667 238.800,75.200 238.639,75.200 238.400 C 75.200 238.180,75.560 238.000,76.000 238.000 C 76.440 238.000,76.800 237.820,76.800 237.600 C 76.800 237.380,77.036 237.200,77.325 237.200 C 77.613 237.200,78.236 236.840,78.708 236.400 C 79.180 235.960,79.844 235.600,80.183 235.600 C 80.522 235.600,80.800 235.420,80.800 235.200 C 80.800 234.980,81.160 234.800,81.600 234.800 C 82.040 234.800,82.400 234.620,82.400 234.400 C 82.400 234.180,82.636 234.000,82.925 234.000 C 83.213 234.000,83.836 233.640,84.308 233.200 C 84.780 232.760,85.444 232.400,85.783 232.400 C 86.122 232.400,86.400 232.220,86.400 232.000 C 86.400 231.780,86.760 231.600,87.200 231.600 C 87.640 231.600,88.000 231.420,88.000 231.200 C 88.000 230.980,88.270 230.800,88.600 230.800 C 88.930 230.800,89.200 230.620,89.200 230.400 C 89.200 230.180,89.470 230.000,89.800 230.000 C 90.130 230.000,90.400 229.820,90.400 229.600 C 90.400 229.380,90.586 229.200,90.813 229.200 C 91.555 229.200,94.000 226.448,94.000 225.613 C 94.000 225.166,94.180 224.800,94.400 224.800 C 94.629 224.800,94.800 223.600,94.800 222.000 C 94.800 220.400,94.629 219.200,94.400 219.200 C 94.180 219.200,94.000 218.744,94.000 218.187 C 94.000 217.166,92.222 215.102,90.480 214.100 C 89.426 213.494,82.400 213.407,82.400 214.000 M309.409 214.124 C 308.071 214.929,306.000 217.317,306.000 218.055 C 306.000 218.439,305.820 218.864,305.600 219.000 C 305.380 219.136,305.200 220.497,305.200 222.024 C 305.200 223.608,305.372 224.800,305.600 224.800 C 305.820 224.800,306.000 225.166,306.000 225.613 C 306.000 226.448,308.445 229.200,309.187 229.200 C 309.414 229.200,309.600 229.380,309.600 229.600 C 309.600 229.820,309.870 230.000,310.200 230.000 C 310.530 230.000,310.800 230.180,310.800 230.400 C 310.800 230.620,311.070 230.800,311.400 230.800 C 311.730 230.800,312.000 230.980,312.000 231.200 C 312.000 231.420,312.360 231.600,312.800 231.600 C 313.240 231.600,313.600 231.780,313.600 232.000 C 313.600 232.220,313.878 232.400,314.217 232.400 C 314.556 232.400,315.220 232.760,315.692 233.200 C 316.164 233.640,316.787 234.000,317.075 234.000 C 317.364 234.000,317.600 234.180,317.600 234.400 C 317.600 234.620,317.960 234.800,318.400 234.800 C 318.840 234.800,319.200 234.980,319.200 235.200 C 319.200 235.420,319.520 235.600,319.912 235.600 C 320.303 235.600,320.883 235.960,321.200 236.400 C 321.517 236.840,322.097 237.200,322.488 237.200 C 322.880 237.200,323.200 237.380,323.200 237.600 C 323.200 237.820,323.560 238.000,324.000 238.000 C 324.440 238.000,324.800 238.180,324.800 238.400 C 324.800 238.639,326.333 238.800,328.600 238.800 C 330.867 238.800,332.400 238.639,332.400 238.400 C 332.400 238.180,332.691 238.000,333.046 238.000 C 333.881 238.000,336.400 235.255,336.400 234.345 C 336.400 233.961,336.580 233.536,336.800 233.400 C 337.020 233.264,337.200 231.903,337.200 230.376 C 337.200 228.792,337.028 227.600,336.800 227.600 C 336.580 227.600,336.400 227.275,336.400 226.878 C 336.400 226.060,333.935 223.200,333.229 223.200 C 332.975 223.200,332.380 222.840,331.908 222.400 C 331.436 221.960,330.813 221.600,330.525 221.600 C 330.236 221.600,330.000 221.420,330.000 221.200 C 330.000 220.980,329.640 220.800,329.200 220.800 C 328.760 220.800,328.400 220.620,328.400 220.400 C 328.400 220.180,328.106 220.000,327.747 220.000 C 327.388 220.000,326.803 219.671,326.447 219.270 C 326.091 218.868,325.215 218.284,324.500 217.972 C 323.785 217.660,323.200 217.269,323.200 217.102 C 323.200 216.936,322.922 216.800,322.583 216.800 C 322.244 216.800,321.580 216.440,321.108 216.000 C 320.636 215.560,320.013 215.200,319.725 215.200 C 319.436 215.200,319.200 215.020,319.200 214.800 C 319.200 214.580,318.840 214.400,318.400 214.400 C 317.960 214.400,317.600 214.220,317.600 214.000 C 317.600 213.427,310.386 213.535,309.409 214.124 M239.000 325.800 L 239.000 337.400 200.000 337.400 L 161.000 337.400 160.894 326.205 C 160.835 320.048,160.875 314.782,160.982 314.503 C 161.138 314.097,168.951 314.016,200.088 314.098 L 239.000 314.200 239.000 325.800 M231.200 366.065 L 231.200 378.930 230.189 380.654 C 229.597 381.665,228.465 382.797,227.454 383.389 L 225.730 384.400 200.000 384.400 L 174.270 384.400 172.546 383.389 C 171.535 382.797,170.403 381.665,169.811 380.654 L 168.800 378.930 168.800 366.065 L 168.800 353.200 200.000 353.200 L 231.200 353.200 231.200 366.065 " stroke="none" fill="#040404" fill-rule="evenodd"></path><path id="path4" d="M188.800 64.474 C 186.268 64.822,183.884 65.250,179.800 66.087 C 176.262 66.813,168.723 69.227,164.235 71.072 C 159.543 73.001,157.501 73.275,155.167 72.289 C 153.784 71.705,151.600 69.780,151.600 69.145 C 151.600 68.955,151.343 68.800,151.029 68.800 C 150.045 68.800,153.170 71.898,155.041 72.777 C 157.727 74.040,159.398 73.796,164.698 71.372 C 165.867 70.837,167.078 70.400,167.388 70.400 C 167.699 70.400,168.051 70.241,168.170 70.048 C 168.290 69.854,168.796 69.601,169.294 69.486 C 169.792 69.371,171.460 68.886,173.000 68.408 C 178.270 66.774,188.031 64.808,190.900 64.802 L 192.000 64.800 192.000 181.600 L 192.000 298.400 181.190 298.400 L 170.380 298.400 169.990 297.374 C 169.776 296.810,169.587 295.685,169.572 294.874 C 169.540 293.209,168.880 291.161,168.828 292.567 C 168.739 294.991,169.709 298.412,170.542 298.615 C 171.014 298.731,176.080 298.774,181.800 298.712 L 192.200 298.600 192.200 181.433 C 192.200 103.639,192.066 64.242,191.800 64.192 C 191.580 64.151,190.230 64.278,188.800 64.474 M207.888 64.245 C 207.285 64.848,207.550 154.806,208.155 155.038 C 208.461 155.155,210.306 155.077,212.255 154.863 C 221.661 153.833,225.183 151.334,230.387 142.000 C 235.018 133.695,237.460 130.658,241.995 127.568 C 251.849 120.854,260.102 132.936,250.521 140.050 C 248.514 141.541,247.028 143.359,245.248 146.502 C 244.782 147.326,244.040 148.630,243.600 149.400 C 243.160 150.170,242.418 151.474,241.952 152.298 C 235.397 163.874,225.476 169.419,209.400 170.493 L 207.800 170.600 207.800 234.600 L 207.800 298.600 218.600 298.697 C 231.218 298.811,230.265 299.144,230.994 294.371 C 231.940 288.175,234.908 277.866,237.035 273.383 C 237.867 271.630,237.598 270.964,235.932 270.651 C 226.987 268.968,217.875 258.902,220.219 253.293 C 222.752 247.230,228.563 246.805,234.205 252.270 C 235.528 253.552,237.148 254.846,237.805 255.147 C 238.462 255.447,239.313 255.852,239.695 256.047 C 240.723 256.570,246.784 256.464,248.411 255.894 C 254.669 253.704,259.600 246.700,259.600 240.004 C 259.600 238.045,259.678 238.084,255.170 237.814 C 252.666 237.664,251.669 237.715,252.200 237.966 C 252.640 238.174,254.418 238.356,256.152 238.372 L 259.304 238.400 259.058 240.100 C 258.191 246.099,256.908 249.041,253.950 251.808 C 247.622 257.727,240.523 257.508,233.769 251.184 C 224.954 242.930,214.068 252.757,221.787 262.000 C 225.132 266.006,233.111 271.200,235.918 271.200 C 236.903 271.200,237.018 271.790,236.360 273.474 C 235.190 276.468,233.131 282.351,232.817 283.600 C 231.288 289.666,230.846 291.737,230.124 296.200 L 229.800 298.200 219.000 298.200 L 208.200 298.200 208.099 234.824 C 208.024 187.857,208.115 171.376,208.452 171.168 C 208.702 171.014,210.637 170.764,212.753 170.614 C 216.354 170.358,217.285 170.196,221.400 169.117 C 229.647 166.953,241.600 157.788,241.600 153.628 C 241.600 153.393,241.759 153.200,241.953 153.200 C 242.148 153.200,242.410 152.885,242.536 152.500 C 242.662 152.115,243.317 150.900,243.991 149.800 C 244.666 148.700,245.335 147.530,245.478 147.200 C 246.333 145.224,249.132 141.780,251.011 140.392 C 256.222 136.542,256.998 131.395,252.967 127.413 C 250.823 125.294,246.181 123.937,245.400 125.200 C 245.264 125.420,244.884 125.600,244.554 125.600 C 242.640 125.600,236.666 130.944,233.823 135.200 C 232.176 137.665,231.459 138.881,229.460 142.600 C 228.987 143.480,228.510 144.290,228.399 144.400 C 228.289 144.510,227.935 145.112,227.612 145.738 C 225.018 150.763,217.932 154.400,210.736 154.400 L 208.000 154.400 208.000 109.600 C 208.000 65.627,208.014 64.800,208.771 64.800 C 218.500 64.800,230.902 70.096,233.297 75.273 C 234.501 77.876,234.503 78.242,233.310 79.000 C 231.533 80.128,225.877 86.117,224.970 87.831 C 224.513 88.694,223.931 89.760,223.676 90.200 C 220.973 94.865,220.049 99.787,221.390 102.380 C 222.862 105.227,227.973 107.885,229.945 106.830 C 230.386 106.593,231.078 106.400,231.483 106.400 C 233.369 106.400,235.267 103.947,237.827 98.200 C 241.849 89.171,254.088 86.684,263.600 92.964 C 270.548 97.551,272.945 104.621,270.591 113.586 C 268.946 119.847,270.161 122.819,275.413 125.389 C 283.365 129.280,289.272 137.464,291.443 147.600 C 293.598 157.657,287.925 169.251,278.538 173.975 C 272.801 176.863,270.989 182.924,274.631 187.041 C 279.069 192.057,281.164 197.057,281.235 202.800 C 281.273 205.904,281.349 206.343,281.647 205.200 C 282.850 200.580,280.005 192.174,275.691 187.600 C 271.880 183.560,272.923 177.696,277.955 174.862 C 278.480 174.567,279.552 173.964,280.337 173.523 C 288.834 168.751,294.345 156.212,291.974 147.046 C 290.173 140.080,287.946 135.774,283.409 130.480 C 282.194 129.062,278.842 126.587,276.394 125.301 C 272.907 123.468,272.211 122.913,271.241 121.187 C 270.232 119.393,270.221 116.480,271.211 113.400 C 274.201 104.094,269.321 94.119,260.000 90.483 C 249.217 86.276,240.387 90.114,236.036 100.899 C 234.490 104.728,231.351 106.749,227.719 106.251 C 223.030 105.608,219.921 100.418,221.650 96.119 C 221.897 95.503,222.234 94.640,222.398 94.200 C 224.233 89.275,228.002 84.095,232.228 80.688 C 239.038 75.200,227.776 66.151,212.217 64.610 C 210.906 64.480,209.460 64.280,209.005 64.165 C 208.549 64.051,208.046 64.087,207.888 64.245 M134.832 79.479 C 134.814 79.742,135.250 80.804,135.800 81.838 C 139.364 88.541,131.934 95.918,125.544 92.023 C 124.805 91.572,123.930 91.217,123.600 91.233 C 123.067 91.260,123.067 91.288,123.600 91.489 C 123.930 91.613,124.654 92.031,125.208 92.419 C 131.888 97.089,140.574 88.046,135.984 81.200 C 135.616 80.650,135.213 79.930,135.089 79.600 C 134.965 79.270,134.849 79.215,134.832 79.479 M112.400 106.954 C 112.400 107.068,113.274 108.036,114.343 109.105 C 117.010 111.772,117.424 114.459,115.762 118.300 C 115.175 119.657,114.160 122.029,113.580 123.400 C 113.393 123.840,112.848 125.460,112.368 127.000 C 111.888 128.540,111.352 130.160,111.178 130.600 C 111.003 131.040,110.749 131.940,110.612 132.600 C 110.476 133.260,110.192 134.520,109.981 135.400 C 107.401 146.175,106.869 162.328,108.795 171.400 C 108.982 172.280,109.356 174.080,109.627 175.400 C 110.771 180.977,112.398 186.440,113.647 188.895 C 113.841 189.277,114.000 189.767,114.000 189.985 C 114.000 190.468,115.907 194.688,118.073 199.000 C 119.476 201.793,125.402 211.025,129.242 216.400 C 131.946 220.185,146.000 241.138,146.000 241.385 C 146.000 241.527,146.684 242.669,147.519 243.922 C 148.355 245.175,149.768 247.460,150.659 249.000 C 151.550 250.540,152.956 252.970,153.784 254.400 C 154.611 255.830,156.542 259.610,158.074 262.800 C 159.606 265.990,161.207 269.292,161.630 270.138 C 162.054 270.984,162.400 271.841,162.400 272.042 C 162.400 272.244,162.751 273.172,163.180 274.104 C 164.160 276.234,166.923 284.677,167.597 287.600 C 168.362 290.922,168.729 291.987,168.768 290.996 C 168.984 285.496,159.545 262.787,151.670 249.859 C 150.751 248.352,150.000 247.044,150.000 246.953 C 150.000 246.647,138.040 228.094,137.185 227.073 C 136.967 226.813,136.376 225.970,135.871 225.200 C 135.366 224.430,134.321 222.900,133.548 221.800 C 132.774 220.700,130.541 217.460,128.584 214.600 C 126.627 211.740,124.807 209.174,124.539 208.898 C 124.272 208.621,123.938 208.036,123.799 207.598 C 123.660 207.159,123.378 206.800,123.173 206.800 C 122.968 206.800,122.800 206.607,122.800 206.372 C 122.800 206.137,122.285 205.192,121.655 204.272 C 117.837 198.695,112.774 186.731,110.875 178.800 C 106.682 161.294,107.223 144.990,112.559 128.000 C 113.286 125.685,114.152 123.412,115.891 119.251 C 117.590 115.188,117.590 112.633,115.892 110.068 C 114.977 108.684,112.400 106.386,112.400 106.954 M223.604 193.356 C 216.832 194.856,215.473 202.310,220.970 207.811 C 223.464 210.307,224.848 212.402,226.051 215.500 C 226.243 215.995,226.604 216.895,226.854 217.500 C 227.103 218.105,227.440 218.960,227.603 219.400 C 228.211 221.044,229.811 224.205,230.100 224.333 C 230.265 224.407,230.400 224.678,230.400 224.936 C 230.400 228.570,244.724 237.683,250.271 237.579 C 250.948 237.566,250.040 237.160,248.000 236.563 C 239.593 234.106,234.129 230.253,230.579 224.279 C 229.821 223.002,229.200 221.875,229.200 221.774 C 229.200 221.674,228.861 220.828,228.447 219.896 C 228.033 218.963,227.465 217.570,227.184 216.800 C 225.683 212.690,224.170 210.219,221.709 207.862 C 216.998 203.350,216.684 199.016,220.811 195.483 C 226.341 190.750,235.685 196.938,240.013 208.200 C 240.182 208.640,240.698 209.853,241.160 210.896 C 241.622 211.938,242.000 212.956,242.000 213.158 C 242.000 215.441,246.166 219.853,249.458 221.056 C 255.436 223.240,259.123 223.287,266.882 221.276 C 273.526 219.555,281.319 212.013,281.173 207.446 C 281.148 206.673,281.110 206.686,280.728 207.600 C 276.698 217.238,270.605 221.291,259.256 221.882 C 251.078 222.308,245.711 219.922,243.352 214.812 C 242.790 213.595,242.166 212.287,241.965 211.905 C 241.764 211.523,241.600 211.026,241.600 210.801 C 241.600 210.439,241.248 209.578,239.474 205.600 C 236.101 198.035,228.602 192.250,223.604 193.356 M160.982 314.503 C 160.875 314.782,160.835 320.048,160.894 326.205 L 161.000 337.400 200.000 337.400 L 239.000 337.400 239.000 325.800 L 239.000 314.200 200.088 314.098 C 168.951 314.016,161.138 314.097,160.982 314.503 M238.800 325.800 L 238.800 337.200 200.000 337.200 L 161.200 337.200 161.200 325.800 L 161.200 314.400 200.000 314.400 L 238.800 314.400 238.800 325.800 M170.204 381.272 C 170.562 381.862,171.338 382.638,171.928 382.996 L 173.000 383.647 172.080 382.844 C 171.574 382.401,170.799 381.626,170.356 381.120 L 169.553 380.200 170.204 381.272 M229.200 381.600 C 228.730 382.260,228.436 382.800,228.546 382.800 C 228.656 382.800,229.130 382.260,229.600 381.600 C 230.070 380.940,230.364 380.400,230.254 380.400 C 230.144 380.400,229.670 380.940,229.200 381.600 M173.600 384.000 C 173.930 384.213,174.470 384.388,174.800 384.388 C 175.333 384.388,175.333 384.345,174.800 384.000 C 174.470 383.787,173.930 383.612,173.600 383.612 C 173.067 383.612,173.067 383.655,173.600 384.000 " stroke="none" fill="#8b3b41" fill-rule="evenodd"></path></g></svg>